<svg fill="none" height="32" viewBox="0 0 206 32" width="206" xmlns="http://www.w3.org/2000/svg" xmlns:xlink="http://www.w3.org/1999/xlink"><linearGradient id="a"><stop offset="0" stop-color="#a03995"/><stop offset=".373" stop-color="#7b2778"/><stop offset=".8931" stop-color="#400e41"/><stop offset="1" stop-color="#1e101e"/></linearGradient><linearGradient id="b" gradientUnits="userSpaceOnUse" x1="24.2288" x2="25.0164" xlink:href="#a" y1="21.3499" y2="22.3225"/><linearGradient id="c"><stop offset="0" stop-color="#fff" stop-opacity="0"/><stop offset="1" stop-color="#fff"/></linearGradient><linearGradient id="d" gradientUnits="userSpaceOnUse" x1="22.3183" x2="22.7684" xlink:href="#c" y1="22.8967" y2="23.4261"/><linearGradient id="e" gradientUnits="userSpaceOnUse" x1="39.7606" x2="38.2108" xlink:href="#a" y1="21.017" y2="22.9358"/><linearGradient id="f" gradientUnits="userSpaceOnUse" x1="41.3766" x2="40.9584" xlink:href="#c" y1="22.8788" y2="23.3708"/><linearGradient id="g" gradientUnits="userSpaceOnUse" x1="38.7968" x2="39.6344" xlink:href="#a" y1="9.58383" y2="10.6182"/><linearGradient id="h" gradientUnits="userSpaceOnUse" x1="52.6308" x2="53.7953" xlink:href="#a" y1="21.2293" y2="22.6673"/><linearGradient id="i" gradientUnits="userSpaceOnUse" x1="11.2974" x2="9.74754" xlink:href="#a" y1="21.1299" y2="22.9011"/><linearGradient id="j" gradientUnits="userSpaceOnUse" x1="11.2998" x2="10.8816" xlink:href="#c" y1="21.4272" y2="21.9193"/><linearGradient id="k" gradientUnits="userSpaceOnUse" x1="25.5165" x2="24.0405" xlink:href="#a" y1="8.97182" y2="10.6692"/><linearGradient id="l"><stop offset="0" stop-color="#fff"/><stop offset="1" stop-color="#fff" stop-opacity="0"/></linearGradient><linearGradient id="m" gradientUnits="userSpaceOnUse" x1="24.8997" x2="25.3827" xlink:href="#l" y1="9.69895" y2="9.1579"/><linearGradient id="n" gradientUnits="userSpaceOnUse" x1="53.2758" x2="53.6938" xlink:href="#c" y1="20.7654" y2="21.2574"/><linearGradient id="o" gradientUnits="userSpaceOnUse" x1="39.6783" x2="39.1951" xlink:href="#l" y1="9.03512" y2="8.49402"/><linearGradient id="p"><stop offset="0" stop-color="#d173ae"/><stop offset=".373" stop-color="#7b2778"/><stop offset=".8931" stop-color="#400e41"/><stop offset="1" stop-color="#1e101e"/></linearGradient><radialGradient id="q" cx="28.6836" cy="12.6887" gradientUnits="userSpaceOnUse" r="12.0514" xlink:href="#p"/><radialGradient id="r" cx="2.08649" cy="14.4776" gradientUnits="userSpaceOnUse" r="5.56215" xlink:href="#p"/><radialGradient id="s" cx="0" cy="0" gradientTransform="matrix(5.56215 0 0 5.56216 16.1891 2.02946)" gradientUnits="userSpaceOnUse" r="1" xlink:href="#p"/><radialGradient id="t" cx="44.632" cy="2.02946" gradientUnits="userSpaceOnUse" r="5.56216" xlink:href="#p"/><radialGradient id="u" cx="58.7386" cy="14.4775" gradientUnits="userSpaceOnUse" r="5.56216" xlink:href="#p"/><radialGradient id="v" cx="44.632" cy="26.9038" gradientUnits="userSpaceOnUse" r="5.56216" xlink:href="#p"/><radialGradient id="w" cx="0" cy="0" gradientTransform="matrix(5.56215 0 0 5.56216 16.1891 26.9038)" gradientUnits="userSpaceOnUse" r="1" xlink:href="#p"/><linearGradient id="x" gradientUnits="userSpaceOnUse" x1="36.1927" x2="32.8534" xlink:href="#l" y1="20.3108" y2="16.9715"/><linearGradient id="y" gradientUnits="userSpaceOnUse" x1="29.5003" x2="31.6711" xlink:href="#l" y1="13.7954" y2="15.9663"/><linearGradient id="z" gradientUnits="userSpaceOnUse" x1="19.6565" x2="18.1152" xlink:href="#l" y1="5.54577" y2="4.00451"/><linearGradient id="A" gradientUnits="userSpaceOnUse" x1="16.5495" x2="17.5514" xlink:href="#l" y1="2.55676" y2="3.55879"/><linearGradient id="B" gradientUnits="userSpaceOnUse" x1="5.54521" x2="4.00395" xlink:href="#l" y1="18.0026" y2="16.4614"/><linearGradient id="C" gradientUnits="userSpaceOnUse" x1="2.46778" x2="3.4697" xlink:href="#l" y1="14.9844" y2="15.9863"/><linearGradient id="D" gradientUnits="userSpaceOnUse" x1="19.6361" x2="18.0949" xlink:href="#l" y1="30.4404" y2="28.8992"/><linearGradient id="E" gradientUnits="userSpaceOnUse" x1="16.5586" x2="17.5606" xlink:href="#l" y1="27.4222" y2="28.424"/><linearGradient id="F" gradientUnits="userSpaceOnUse" x1="48.0863" x2="46.5451" xlink:href="#l" y1="30.4331" y2="28.8919"/><linearGradient id="G" gradientUnits="userSpaceOnUse" x1="45.0089" x2="46.0109" xlink:href="#l" y1="27.4148" y2="28.4167"/><linearGradient id="H" gradientUnits="userSpaceOnUse" x1="62.2107" x2="60.6695" xlink:href="#l" y1="17.9892" y2="16.448"/><linearGradient id="I" gradientUnits="userSpaceOnUse" x1="59.1332" x2="60.1352" xlink:href="#l" y1="14.9709" y2="15.9729"/><linearGradient id="J" gradientUnits="userSpaceOnUse" x1="48.1067" x2="46.5655" xlink:href="#l" y1="5.53845" y2="3.99719"/><linearGradient id="K" gradientUnits="userSpaceOnUse" x1="44.9997" x2="46.0017" xlink:href="#l" y1="2.54943" y2="3.55141"/><clipPath id="L"><path d="m0 0h205.166v32h-205.166z"/></clipPath><g clip-path="url(#L)"><g fill="#000"><path d="m89.6826 23.2029c-1.4169 1.417-3.3653 2.2435-5.3726 2.2435-2.0074 0-3.8967-.6494-5.3137-2.1254-2.0664-2.0664-2.3616-4.5461-2.3616-7.6753 0-3.1291.2952-5.6088 2.3616-7.67527 1.417-1.41697 3.3063-2.12546 5.3137-2.12546 2.0073 0 4.0147.76753 5.3726 2.1845 1.0628 1.12177 1.6532 2.59783 1.8303 4.07383h-3.4834c-.059-.8266-.3542-1.417-.8266-2.0074-.5904-.76753-1.6531-1.18082-2.8339-1.18082-1.0627 0-2.1255.47233-2.893 1.23982-1.2989 1.358-1.2989 3.7196-1.2989 5.4318 0 1.7121 0 4.0738 1.2989 5.4317.7675.7675 1.8303 1.2399 2.893 1.2399 1.1808 0 2.2435-.4133 2.8339-1.1809.4724-.5904.7676-1.2398.8266-2.0664h3.4834c-.1771 1.5351-.7675 3.0701-1.8303 4.1919z"/><path d="m106.804 25.0332-3.129-7.1439h-4.1916v7.1439h-3.4244v-18.83398h7.971c4.487 0 6.553 2.83395 6.553 5.84498 0 2.5388-1.358 4.4871-3.424 5.3137l3.424 7.6753zm-2.834-15.82291h-4.4866v5.60881h4.5466c1.948 0 3.07-1.0036 3.07-2.7749 0-1.476-1.181-2.83391-3.13-2.83391z"/><path d="m127.292 23.2619c-1.417 1.417-3.425 2.1255-5.432 2.1255-2.008 0-4.015-.7085-5.432-2.1255-2.066-2.0664-2.362-4.5461-2.362-7.6162s.355-5.6088 2.362-7.67527c1.417-1.41697 3.424-2.12546 5.432-2.12546 2.007 0 4.015.70849 5.432 2.12546 2.066 2.06647 2.361 4.54617 2.361 7.67527 0 3.1292-.354 5.6089-2.361 7.6162zm-2.48-13.0479c-.768-.76755-1.89-1.23988-2.952-1.23988-1.063 0-2.244.47233-2.952 1.23988-1.299 1.3579-1.358 3.7195-1.358 5.4317s.059 4.0148 1.358 5.3727c.767.7675 1.889 1.2399 2.952 1.2399 1.062 0 2.243-.4724 2.952-1.2399 1.299-1.3579 1.358-3.6605 1.358-5.3727s-.059-4.0738-1.358-5.4317z"/><path d="m146.716 23.38c-1.417 1.417-3.661 2.0074-5.963 2.0074-2.008 0-4.074-.5314-5.609-1.9484-1.122-1.0037-1.948-2.5978-1.948-4.369h3.483c0 .9447.413 1.7712 1.004 2.3026.826.7675 2.066 1.0037 3.188 1.0037 1.299 0 2.539-.2952 3.247-1.0037.413-.4723.768-.8856.768-1.8303 0-1.3579-1.063-2.0073-2.244-2.2435-1.299-.2362-2.952-.2952-4.192-.5314-2.598-.4132-4.782-2.1254-4.782-5.2546 0-1.476.649-2.71584 1.653-3.71953 1.24-1.23985 3.306-2.00738 5.55-2.00738 2.007 0 4.015.64944 5.254 1.83026 1.122 1.06273 1.89 2.42065 1.89 4.01475h-3.484c0-.6494-.354-1.3579-.826-1.88929-.591-.64945-1.83-1.00369-2.893-1.00369s-2.303.23616-3.07 1.06273c-.414.41325-.65.88565-.65 1.59405 0 1.2399.768 1.8303 1.89 2.0665 1.18.1771 2.893.2952 4.073.4723 2.834.4133 5.196 2.2435 5.196 5.4317.059 1.8303-.591 3.0701-1.535 4.0148z"/><path d="m159.823 25.3874c-4.841 0-7.38-3.0701-7.38-7.5572v-11.63098h3.424v11.57198c0 2.6568 1.24 4.5461 3.956 4.5461s3.956-1.8303 3.956-4.5461v-11.57198h3.424v11.63098c0 4.4871-2.539 7.5572-7.38 7.5572z"/><path d="m183.439 25.0332-3.129-7.1439h-4.192v7.1439h-3.424v-18.83398h7.97c4.487 0 6.554 2.83395 6.554 5.84498 0 2.5388-1.358 4.4871-3.425 5.3137l3.425 7.6753zm-2.834-15.82291h-4.487v5.60881h4.546c1.949 0 3.07-1.0036 3.07-2.7749 0-1.476-1.181-2.83391-3.129-2.83391z"/><path d="m191.764 25.0332v-18.83398h13.402v3.12915h-9.978v4.36903h8.797v3.0701h-8.797v5.1365h9.978v3.1292z"/></g><path d="m18.4207 28.8118-1.4761-1.7713 14.1698-11.8081 1.535 1.8303z" fill="url(#b)"/><path d="m15.6458 29.3431 14.2287-11.749-.4132-.5904-14.2288 11.8081z" fill="url(#d)" opacity=".5"/><path d="m45.3432 28.8119-14.2288-11.8671 1.535-1.8303 14.2288 11.8672z" fill="url(#e)"/><path d="m48.059 29.3431-14.2287-11.8672.4132-.5313 14.2288 11.8671z" fill="url(#f)" opacity=".5"/><path d="m32.6494 16.9446-1.535-1.7712 14.2288-12.45758 1.535 1.77122z" fill="url(#g)"/><path d="m46.8782 28.8119-1.535-1.8302 14.2288-11.8672 1.535 1.8303z" fill="url(#h)"/><path d="m16.9446 28.8119-14.22873-11.8671 1.47601-1.8303 14.22882 11.8672z" fill="url(#i)"/><path d="m18.0074 27.9263-14.22881-11.8671.35425-.5904 14.22876 11.8671z" fill="url(#j)" opacity=".5"/><path d="m31.1144 16.9446-14.2288-12.45756 1.5941-1.77122 14.1697 12.45758z" fill="url(#k)"/><path d="m32.059 15.882-14.2287-12.39849.4132-.53136 14.2288 12.45755z" fill="url(#m)" opacity=".5"/><path d="m46.583 27.2176 14.2288-11.8671-.4133-.5314-14.2288 11.8672z" fill="url(#n)" opacity=".5"/><path d="m32.5314 15.2324 14.2288-12.45759-.4133-.47232-14.2288 12.45761z" fill="url(#o)" opacity=".5"/><path d="m31.8819 23.6753c4.239 0 7.6753-3.4364 7.6753-7.6753 0-4.239-3.4363-7.67529-7.6753-7.67529-4.2389 0-7.6753 3.43629-7.6753 7.67529 0 4.2389 3.4364 7.6753 7.6753 7.6753z" fill="url(#q)"/><path d="m3.54244 19.5424c1.95643 0 3.54243-1.586 3.54243-3.5424 0-1.9565-1.586-3.5425-3.54243-3.5425-1.95644 0-3.54244 1.586-3.54244 3.5425 0 1.9564 1.586 3.5424 3.54244 3.5424z" fill="url(#r)"/><path d="m17.6531 7.08487c1.9565 0 3.5425-1.586 3.5425-3.54243 0-1.95644-1.586-3.54244-3.5425-3.54244-1.9564 0-3.5424 1.586-3.5424 3.54244 0 1.95643 1.586 3.54243 3.5424 3.54243z" fill="url(#s)"/><path d="m46.1107 7.08487c1.9564 0 3.5424-1.586 3.5424-3.54243 0-1.95644-1.586-3.54244-3.5424-3.54244s-3.5424 1.586-3.5424 3.54244c0 1.95643 1.586 3.54243 3.5424 3.54243z" fill="url(#t)"/><path d="m60.2214 19.5424c1.9564 0 3.5424-1.586 3.5424-3.5424 0-1.9565-1.586-3.5425-3.5424-3.5425s-3.5424 1.586-3.5424 3.5425c0 1.9564 1.586 3.5424 3.5424 3.5424z" fill="url(#u)"/><path d="m46.1107 31.9999c1.9564 0 3.5424-1.586 3.5424-3.5424 0-1.9565-1.586-3.5425-3.5424-3.5425s-3.5424 1.586-3.5424 3.5425c0 1.9564 1.586 3.5424 3.5424 3.5424z" fill="url(#v)"/><path d="m17.6531 31.9999c1.9565 0 3.5425-1.586 3.5425-3.5424 0-1.9565-1.586-3.5425-3.5425-3.5425-1.9564 0-3.5424 1.586-3.5424 3.5425 0 1.9564 1.586 3.5424 3.5424 3.5424z" fill="url(#w)"/><path d="m31.8819 22.2583c3.4564 0 6.2583-2.8019 6.2583-6.2583s-2.8019-6.2583-6.2583-6.2583-6.2583 2.8019-6.2583 6.2583 2.8019 6.2583 6.2583 6.2583z" fill="url(#x)" opacity=".2"/><path d="m29.6974 18.6568c2.576 0 4.6642-2.0883 4.6642-4.6642 0-2.576-2.0882-4.66423-4.6642-4.66423s-4.6642 2.08823-4.6642 4.66423c0 2.5759 2.0882 4.6642 4.6642 4.6642z" fill="url(#y)" opacity=".2"/><path d="m17.6531 6.43539c1.5978 0 2.893-1.29523 2.893-2.89299 0-1.59775-1.2952-2.892986-2.893-2.892986-1.5977 0-2.893 1.295236-2.893 2.892986 0 1.59776 1.2953 2.89299 2.893 2.89299z" fill="url(#z)" opacity=".15"/><path d="m16.6494 4.78217c1.1739 0 2.1255-.9516 2.1255-2.12546s-.9516-2.12546-2.1255-2.12546c-1.1738 0-2.1254.9516-2.1254 2.12546s.9516 2.12546 2.1254 2.12546z" fill="url(#A)" opacity=".1"/><path d="m3.54243 18.8929c1.59776 0 2.89299-1.2952 2.89299-2.893 0-1.5977-1.29523-2.893-2.89299-2.893-1.59775 0-2.892985 1.2953-2.892985 2.893 0 1.5978 1.295235 2.893 2.892985 2.893z" fill="url(#B)" opacity=".15"/><path d="m2.53875 17.1809c1.17385 0 2.12546-.9516 2.12546-2.1255s-.95161-2.1255-2.12546-2.1255c-1.17386 0-2.125466.9516-2.125466 2.1255s.951606 2.1255 2.125466 2.1255z" fill="url(#C)" opacity=".1"/><path d="m17.6531 31.3504c1.5978 0 2.893-1.2952 2.893-2.893 0-1.5977-1.2952-2.8929-2.893-2.8929-1.5977 0-2.893 1.2952-2.893 2.8929 0 1.5978 1.2953 2.893 2.893 2.893z" fill="url(#D)" opacity=".15"/><path d="m16.6494 29.6384c1.1739 0 2.1255-.9516 2.1255-2.1255 0-1.1738-.9516-2.1254-2.1255-2.1254-1.1738 0-2.1254.9516-2.1254 2.1254 0 1.1739.9516 2.1255 2.1254 2.1255z" fill="url(#E)" opacity=".1"/><path d="m46.1107 31.3504c1.5978 0 2.893-1.2952 2.893-2.893 0-1.5977-1.2952-2.8929-2.893-2.8929s-2.893 1.2952-2.893 2.8929c0 1.5978 1.2952 2.893 2.893 2.893z" fill="url(#F)" opacity=".15"/><path d="m45.107 29.6384c1.1739 0 2.1255-.9516 2.1255-2.1255 0-1.1738-.9516-2.1254-2.1255-2.1254-1.1738 0-2.1254.9516-2.1254 2.1254 0 1.1739.9516 2.1255 2.1254 2.1255z" fill="url(#G)" opacity=".1"/><path d="m60.2214 18.8929c1.5977 0 2.893-1.2952 2.893-2.893 0-1.5977-1.2953-2.893-2.893-2.893-1.5978 0-2.893 1.2953-2.893 2.893 0 1.5978 1.2952 2.893 2.893 2.893z" fill="url(#H)" opacity=".15"/><path d="m59.2177 17.1809c1.1739 0 2.1255-.9516 2.1255-2.1255s-.9516-2.1255-2.1255-2.1255c-1.1738 0-2.1254.9516-2.1254 2.1255s.9516 2.1255 2.1254 2.1255z" fill="url(#I)" opacity=".1"/><path d="m46.1107 6.43539c1.5978 0 2.893-1.29523 2.893-2.89299 0-1.59775-1.2952-2.892986-2.893-2.892986s-2.893 1.295236-2.893 2.892986c0 1.59776 1.2952 2.89299 2.893 2.89299z" fill="url(#J)" opacity=".15"/><path d="m45.107 4.78217c1.1739 0 2.1255-.9516 2.1255-2.12546s-.9516-2.12546-2.1255-2.12546c-1.1738 0-2.1254.9516-2.1254 2.12546s.9516 2.12546 2.1254 2.12546z" fill="url(#K)" opacity=".1"/></g></svg>